<svg xmlns="http://www.w3.org/2000/svg" xmlns:xlink="http://www.w3.org/1999/xlink" width="500" zoomAndPan="magnify" viewBox="0 0 375 374.999991" height="500" preserveAspectRatio="xMidYMid meet" version="1.0"><defs><clipPath id="ea6ead40a2"><path d="M 37.5 37.5 L 337.5 37.5 L 337.5 337.5 L 37.5 337.5 Z M 37.5 37.5 " clip-rule="nonzero"/></clipPath><clipPath id="2ecf3fe2c9"><path d="M 187.5 37.5 C 104.65625 37.5 37.5 104.65625 37.5 187.5 C 37.5 270.34375 104.65625 337.5 187.5 337.5 C 270.34375 337.5 337.5 270.34375 337.5 187.5 C 337.5 104.65625 270.34375 37.5 187.5 37.5 Z M 187.5 37.5 " clip-rule="nonzero"/></clipPath><linearGradient x1="-0.00000133333" gradientTransform="matrix(1.171875, 0, 0, 1.171875, 37.500004, 37.499999)" y1="-0.00000133333" x2="255.999988" gradientUnits="userSpaceOnUse" y2="255.999988" id="0f7e2f76c8"><stop stop-opacity="1" stop-color="rgb(95.298767%, 54.499817%, 65.899658%)" offset="0"/><stop stop-opacity="1" stop-color="rgb(95.350647%, 54.806519%, 65.644836%)" offset="0.00390625"/><stop stop-opacity="1" stop-color="rgb(95.404053%, 55.11322%, 65.391541%)" offset="0.0078125"/><stop stop-opacity="1" stop-color="rgb(95.457458%, 55.418396%, 65.136719%)" offset="0.0117187"/><stop stop-opacity="1" stop-color="rgb(95.510864%, 55.725098%, 64.883423%)" offset="0.015625"/><stop stop-opacity="1" stop-color="rgb(95.562744%, 56.031799%, 64.628601%)" offset="0.0195312"/><stop stop-opacity="1" stop-color="rgb(95.61615%, 56.338501%, 64.375305%)" offset="0.0234375"/><stop stop-opacity="1" stop-color="rgb(95.66803%, 56.645203%, 64.122009%)" offset="0.0273437"/><stop stop-opacity="1" stop-color="rgb(95.721436%, 56.951904%, 63.868713%)" offset="0.03125"/><stop stop-opacity="1" stop-color="rgb(95.773315%, 57.258606%, 63.613892%)" offset="0.0351562"/><stop stop-opacity="1" stop-color="rgb(95.826721%, 57.565308%, 63.360596%)" offset="0.0390625"/><stop stop-opacity="1" stop-color="rgb(95.878601%, 57.872009%, 63.105774%)" offset="0.0429687"/><stop stop-opacity="1" stop-color="rgb(95.932007%, 58.178711%, 62.852478%)" offset="0.046875"/><stop stop-opacity="1" stop-color="rgb(95.983887%, 58.485413%, 62.597656%)" offset="0.0507812"/><stop stop-opacity="1" stop-color="rgb(96.037292%, 58.792114%, 62.34436%)" offset="0.0546875"/><stop stop-opacity="1" stop-color="rgb(96.089172%, 59.098816%, 62.089539%)" offset="0.0585937"/><stop stop-opacity="1" stop-color="rgb(96.142578%, 59.405518%, 61.836243%)" offset="0.0625"/><stop stop-opacity="1" stop-color="rgb(96.194458%, 59.712219%, 61.582947%)" offset="0.0664062"/><stop stop-opacity="1" stop-color="rgb(96.247864%, 60.018921%, 61.329651%)" offset="0.0703125"/><stop stop-opacity="1" stop-color="rgb(96.30127%, 60.325623%, 61.074829%)" offset="0.0742187"/><stop stop-opacity="1" stop-color="rgb(96.354675%, 60.632324%, 60.821533%)" offset="0.078125"/><stop stop-opacity="1" stop-color="rgb(96.406555%, 60.939026%, 60.566711%)" offset="0.0820312"/><stop stop-opacity="1" stop-color="rgb(96.459961%, 61.245728%, 60.313416%)" offset="0.0859375"/><stop stop-opacity="1" stop-color="rgb(96.511841%, 61.552429%, 60.058594%)" offset="0.0898437"/><stop stop-opacity="1" stop-color="rgb(96.565247%, 61.859131%, 59.805298%)" offset="0.09375"/><stop stop-opacity="1" stop-color="rgb(96.617126%, 62.165833%, 59.550476%)" offset="0.0976562"/><stop stop-opacity="1" stop-color="rgb(96.670532%, 62.472534%, 59.29718%)" offset="0.101562"/><stop stop-opacity="1" stop-color="rgb(96.722412%, 62.77771%, 59.043884%)" offset="0.105469"/><stop stop-opacity="1" stop-color="rgb(96.775818%, 63.084412%, 58.790588%)" offset="0.109375"/><stop stop-opacity="1" stop-color="rgb(96.827698%, 63.391113%, 58.535767%)" offset="0.113281"/><stop stop-opacity="1" stop-color="rgb(96.881104%, 63.697815%, 58.282471%)" offset="0.117187"/><stop stop-opacity="1" stop-color="rgb(96.932983%, 64.004517%, 58.027649%)" offset="0.121094"/><stop stop-opacity="1" stop-color="rgb(96.986389%, 64.311218%, 57.774353%)" offset="0.125"/><stop stop-opacity="1" stop-color="rgb(97.038269%, 64.61792%, 57.519531%)" offset="0.128906"/><stop stop-opacity="1" stop-color="rgb(97.091675%, 64.924622%, 57.266235%)" offset="0.132812"/><stop stop-opacity="1" stop-color="rgb(97.143555%, 65.231323%, 57.011414%)" offset="0.136719"/><stop stop-opacity="1" stop-color="rgb(97.19696%, 65.538025%, 56.758118%)" offset="0.140625"/><stop stop-opacity="1" stop-color="rgb(97.250366%, 65.844727%, 56.504822%)" offset="0.144531"/><stop stop-opacity="1" stop-color="rgb(97.303772%, 66.151428%, 56.251526%)" offset="0.148437"/><stop stop-opacity="1" stop-color="rgb(97.355652%, 66.45813%, 55.996704%)" offset="0.152344"/><stop stop-opacity="1" stop-color="rgb(97.409058%, 66.764832%, 55.743408%)" offset="0.15625"/><stop stop-opacity="1" stop-color="rgb(97.460938%, 67.071533%, 55.488586%)" offset="0.160156"/><stop stop-opacity="1" stop-color="rgb(97.514343%, 67.378235%, 55.235291%)" offset="0.164062"/><stop stop-opacity="1" stop-color="rgb(97.566223%, 67.684937%, 54.980469%)" offset="0.167969"/><stop stop-opacity="1" stop-color="rgb(97.619629%, 67.991638%, 54.727173%)" offset="0.171875"/><stop stop-opacity="1" stop-color="rgb(97.671509%, 68.29834%, 54.472351%)" offset="0.175781"/><stop stop-opacity="1" stop-color="rgb(97.724915%, 68.605042%, 54.219055%)" offset="0.179687"/><stop stop-opacity="1" stop-color="rgb(97.776794%, 68.911743%, 53.965759%)" offset="0.183594"/><stop stop-opacity="1" stop-color="rgb(97.8302%, 69.218445%, 53.712463%)" offset="0.1875"/><stop stop-opacity="1" stop-color="rgb(97.88208%, 69.525146%, 53.457642%)" offset="0.191406"/><stop stop-opacity="1" stop-color="rgb(97.935486%, 69.831848%, 53.204346%)" offset="0.195312"/><stop stop-opacity="1" stop-color="rgb(97.964478%, 70.158386%, 53.173828%)" offset="0.199219"/><stop stop-opacity="1" stop-color="rgb(97.993469%, 70.48645%, 53.144836%)" offset="0.203125"/><stop stop-opacity="1" stop-color="rgb(97.984314%, 70.845032%, 53.451538%)" offset="0.207031"/><stop stop-opacity="1" stop-color="rgb(97.976685%, 71.205139%, 53.75824%)" offset="0.210937"/><stop stop-opacity="1" stop-color="rgb(97.969055%, 71.563721%, 54.064941%)" offset="0.214844"/><stop stop-opacity="1" stop-color="rgb(97.961426%, 71.923828%, 54.371643%)" offset="0.21875"/><stop stop-opacity="1" stop-color="rgb(97.953796%, 72.28241%, 54.678345%)" offset="0.222656"/><stop stop-opacity="1" stop-color="rgb(97.946167%, 72.642517%, 54.985046%)" offset="0.226562"/><stop stop-opacity="1" stop-color="rgb(97.938538%, 73.001099%, 55.290222%)" offset="0.230469"/><stop stop-opacity="1" stop-color="rgb(97.930908%, 73.361206%, 55.596924%)" offset="0.234375"/><stop stop-opacity="1" stop-color="rgb(97.921753%, 73.719788%, 55.903625%)" offset="0.238281"/><stop stop-opacity="1" stop-color="rgb(97.914124%, 74.079895%, 56.210327%)" offset="0.242187"/><stop stop-opacity="1" stop-color="rgb(97.906494%, 74.438477%, 56.517029%)" offset="0.246094"/><stop stop-opacity="1" stop-color="rgb(97.898865%, 74.798584%, 56.82373%)" offset="0.25"/><stop stop-opacity="1" stop-color="rgb(97.891235%, 75.157166%, 57.130432%)" offset="0.253906"/><stop stop-opacity="1" stop-color="rgb(97.883606%, 75.517273%, 57.437134%)" offset="0.257812"/><stop stop-opacity="1" stop-color="rgb(97.875977%, 75.87738%, 57.743835%)" offset="0.261719"/><stop stop-opacity="1" stop-color="rgb(97.868347%, 76.237488%, 58.050537%)" offset="0.265625"/><stop stop-opacity="1" stop-color="rgb(97.860718%, 76.596069%, 58.357239%)" offset="0.269531"/><stop stop-opacity="1" stop-color="rgb(97.853088%, 76.956177%, 58.66394%)" offset="0.273438"/><stop stop-opacity="1" stop-color="rgb(97.843933%, 77.314758%, 58.970642%)" offset="0.277344"/><stop stop-opacity="1" stop-color="rgb(97.836304%, 77.674866%, 59.277344%)" offset="0.28125"/><stop stop-opacity="1" stop-color="rgb(97.828674%, 78.033447%, 59.584045%)" offset="0.285156"/><stop stop-opacity="1" stop-color="rgb(97.821045%, 78.393555%, 59.890747%)" offset="0.289062"/><stop stop-opacity="1" stop-color="rgb(97.813416%, 78.752136%, 60.197449%)" offset="0.292969"/><stop stop-opacity="1" stop-color="rgb(97.805786%, 79.112244%, 60.50415%)" offset="0.296875"/><stop stop-opacity="1" stop-color="rgb(97.798157%, 79.470825%, 60.810852%)" offset="0.300781"/><stop stop-opacity="1" stop-color="rgb(97.790527%, 79.830933%, 61.117554%)" offset="0.304688"/><stop stop-opacity="1" stop-color="rgb(97.781372%, 80.189514%, 61.424255%)" offset="0.308594"/><stop stop-opacity="1" stop-color="rgb(97.773743%, 80.549622%, 61.730957%)" offset="0.3125"/><stop stop-opacity="1" stop-color="rgb(97.766113%, 80.908203%, 62.037659%)" offset="0.316406"/><stop stop-opacity="1" stop-color="rgb(97.758484%, 81.268311%, 62.34436%)" offset="0.320312"/><stop stop-opacity="1" stop-color="rgb(97.750854%, 81.626892%, 62.651062%)" offset="0.324219"/><stop stop-opacity="1" stop-color="rgb(97.743225%, 81.987%, 62.957764%)" offset="0.328125"/><stop stop-opacity="1" stop-color="rgb(97.735596%, 82.345581%, 63.262939%)" offset="0.332031"/><stop stop-opacity="1" stop-color="rgb(97.727966%, 82.705688%, 63.569641%)" offset="0.335938"/><stop stop-opacity="1" stop-color="rgb(97.718811%, 83.06427%, 63.876343%)" offset="0.339844"/><stop stop-opacity="1" stop-color="rgb(97.711182%, 83.424377%, 64.183044%)" offset="0.34375"/><stop stop-opacity="1" stop-color="rgb(97.703552%, 83.782959%, 64.489746%)" offset="0.347656"/><stop stop-opacity="1" stop-color="rgb(97.695923%, 84.143066%, 64.796448%)" offset="0.351562"/><stop stop-opacity="1" stop-color="rgb(97.688293%, 84.501648%, 65.103149%)" offset="0.355469"/><stop stop-opacity="1" stop-color="rgb(97.680664%, 84.861755%, 65.409851%)" offset="0.359375"/><stop stop-opacity="1" stop-color="rgb(97.673035%, 85.220337%, 65.716553%)" offset="0.363281"/><stop stop-opacity="1" stop-color="rgb(97.665405%, 85.580444%, 66.023254%)" offset="0.367188"/><stop stop-opacity="1" stop-color="rgb(97.65625%, 85.939026%, 66.329956%)" offset="0.371094"/><stop stop-opacity="1" stop-color="rgb(97.648621%, 86.299133%, 66.636658%)" offset="0.375"/><stop stop-opacity="1" stop-color="rgb(97.640991%, 86.657715%, 66.943359%)" offset="0.378906"/><stop stop-opacity="1" stop-color="rgb(97.633362%, 87.017822%, 67.250061%)" offset="0.382812"/><stop stop-opacity="1" stop-color="rgb(97.625732%, 87.376404%, 67.556763%)" offset="0.386719"/><stop stop-opacity="1" stop-color="rgb(97.618103%, 87.736511%, 67.863464%)" offset="0.390625"/><stop stop-opacity="1" stop-color="rgb(97.610474%, 88.095093%, 68.170166%)" offset="0.394531"/><stop stop-opacity="1" stop-color="rgb(97.602844%, 88.4552%, 68.476868%)" offset="0.398438"/><stop stop-opacity="1" stop-color="rgb(97.093201%, 88.53302%, 68.452454%)" offset="0.402344"/><stop stop-opacity="1" stop-color="rgb(96.583557%, 88.612366%, 68.42804%)" offset="0.40625"/><stop stop-opacity="1" stop-color="rgb(95.948792%, 88.619995%, 68.319702%)" offset="0.410156"/><stop stop-opacity="1" stop-color="rgb(95.314026%, 88.627625%, 68.212891%)" offset="0.414062"/><stop stop-opacity="1" stop-color="rgb(94.67926%, 88.635254%, 68.104553%)" offset="0.417969"/><stop stop-opacity="1" stop-color="rgb(94.044495%, 88.642883%, 67.997742%)" offset="0.421875"/><stop stop-opacity="1" stop-color="rgb(93.409729%, 88.650513%, 67.889404%)" offset="0.425781"/><stop stop-opacity="1" stop-color="rgb(92.774963%, 88.658142%, 67.782593%)" offset="0.429688"/><stop stop-opacity="1" stop-color="rgb(92.140198%, 88.665771%, 67.674255%)" offset="0.433594"/><stop stop-opacity="1" stop-color="rgb(91.505432%, 88.674927%, 67.567444%)" offset="0.4375"/><stop stop-opacity="1" stop-color="rgb(90.870667%, 88.682556%, 67.460632%)" offset="0.441406"/><stop stop-opacity="1" stop-color="rgb(90.235901%, 88.690186%, 67.353821%)" offset="0.445312"/><stop stop-opacity="1" stop-color="rgb(89.601135%, 88.697815%, 67.245483%)" offset="0.449219"/><stop stop-opacity="1" stop-color="rgb(88.96637%, 88.705444%, 67.138672%)" offset="0.453125"/><stop stop-opacity="1" stop-color="rgb(88.331604%, 88.713074%, 67.030334%)" offset="0.457031"/><stop stop-opacity="1" stop-color="rgb(87.696838%, 88.720703%, 66.923523%)" offset="0.460938"/><stop stop-opacity="1" stop-color="rgb(87.062073%, 88.728333%, 66.815186%)" offset="0.464844"/><stop stop-opacity="1" stop-color="rgb(86.427307%, 88.737488%, 66.708374%)" offset="0.46875"/><stop stop-opacity="1" stop-color="rgb(85.792542%, 88.745117%, 66.600037%)" offset="0.472656"/><stop stop-opacity="1" stop-color="rgb(85.157776%, 88.752747%, 66.493225%)" offset="0.476562"/><stop stop-opacity="1" stop-color="rgb(84.52301%, 88.760376%, 66.386414%)" offset="0.480469"/><stop stop-opacity="1" stop-color="rgb(83.888245%, 88.768005%, 66.279602%)" offset="0.484375"/><stop stop-opacity="1" stop-color="rgb(83.253479%, 88.775635%, 66.171265%)" offset="0.488281"/><stop stop-opacity="1" stop-color="rgb(82.618713%, 88.783264%, 66.064453%)" offset="0.492188"/><stop stop-opacity="1" stop-color="rgb(81.983948%, 88.790894%, 65.956116%)" offset="0.496094"/><stop stop-opacity="1" stop-color="rgb(81.349182%, 88.798523%, 65.849304%)" offset="0.5"/><stop stop-opacity="1" stop-color="rgb(80.714417%, 88.806152%, 65.740967%)" offset="0.503906"/><stop stop-opacity="1" stop-color="rgb(80.079651%, 88.815308%, 65.634155%)" offset="0.507812"/><stop stop-opacity="1" stop-color="rgb(79.444885%, 88.822937%, 65.525818%)" offset="0.511719"/><stop stop-opacity="1" stop-color="rgb(78.81012%, 88.830566%, 65.419006%)" offset="0.515625"/><stop stop-opacity="1" stop-color="rgb(78.175354%, 88.838196%, 65.312195%)" offset="0.519531"/><stop stop-opacity="1" stop-color="rgb(77.540588%, 88.845825%, 65.205383%)" offset="0.523438"/><stop stop-opacity="1" stop-color="rgb(76.905823%, 88.853455%, 65.097046%)" offset="0.527344"/><stop stop-opacity="1" stop-color="rgb(76.271057%, 88.861084%, 64.990234%)" offset="0.53125"/><stop stop-opacity="1" stop-color="rgb(75.636292%, 88.868713%, 64.881897%)" offset="0.535156"/><stop stop-opacity="1" stop-color="rgb(75.001526%, 88.877869%, 64.775085%)" offset="0.539062"/><stop stop-opacity="1" stop-color="rgb(74.36676%, 88.885498%, 64.666748%)" offset="0.542969"/><stop stop-opacity="1" stop-color="rgb(73.731995%, 88.893127%, 64.559937%)" offset="0.546875"/><stop stop-opacity="1" stop-color="rgb(73.097229%, 88.900757%, 64.451599%)" offset="0.550781"/><stop stop-opacity="1" stop-color="rgb(72.462463%, 88.908386%, 64.344788%)" offset="0.554688"/><stop stop-opacity="1" stop-color="rgb(71.827698%, 88.916016%, 64.237976%)" offset="0.558594"/><stop stop-opacity="1" stop-color="rgb(71.192932%, 88.923645%, 64.131165%)" offset="0.5625"/><stop stop-opacity="1" stop-color="rgb(70.558167%, 88.931274%, 64.022827%)" offset="0.566406"/><stop stop-opacity="1" stop-color="rgb(69.923401%, 88.94043%, 63.916016%)" offset="0.570312"/><stop stop-opacity="1" stop-color="rgb(69.288635%, 88.948059%, 63.807678%)" offset="0.574219"/><stop stop-opacity="1" stop-color="rgb(68.65387%, 88.955688%, 63.700867%)" offset="0.578125"/><stop stop-opacity="1" stop-color="rgb(68.019104%, 88.963318%, 63.592529%)" offset="0.582031"/><stop stop-opacity="1" stop-color="rgb(67.384338%, 88.970947%, 63.485718%)" offset="0.585938"/><stop stop-opacity="1" stop-color="rgb(66.749573%, 88.978577%, 63.37738%)" offset="0.589844"/><stop stop-opacity="1" stop-color="rgb(66.114807%, 88.986206%, 63.270569%)" offset="0.59375"/><stop stop-opacity="1" stop-color="rgb(65.562439%, 88.920593%, 63.320923%)" offset="0.597656"/><stop stop-opacity="1" stop-color="rgb(65.010071%, 88.85498%, 63.371277%)" offset="0.601562"/><stop stop-opacity="1" stop-color="rgb(64.787292%, 88.494873%, 64.053345%)" offset="0.605469"/><stop stop-opacity="1" stop-color="rgb(64.564514%, 88.136292%, 64.735413%)" offset="0.609375"/><stop stop-opacity="1" stop-color="rgb(64.341736%, 87.776184%, 65.415955%)" offset="0.613281"/><stop stop-opacity="1" stop-color="rgb(64.118958%, 87.417603%, 66.098022%)" offset="0.617188"/><stop stop-opacity="1" stop-color="rgb(63.896179%, 87.057495%, 66.78009%)" offset="0.621094"/><stop stop-opacity="1" stop-color="rgb(63.674927%, 86.698914%, 67.462158%)" offset="0.625"/><stop stop-opacity="1" stop-color="rgb(63.452148%, 86.338806%, 68.1427%)" offset="0.628906"/><stop stop-opacity="1" stop-color="rgb(63.22937%, 85.980225%, 68.824768%)" offset="0.632812"/><stop stop-opacity="1" stop-color="rgb(63.006592%, 85.620117%, 69.506836%)" offset="0.636719"/><stop stop-opacity="1" stop-color="rgb(62.783813%, 85.261536%, 70.188904%)" offset="0.640625"/><stop stop-opacity="1" stop-color="rgb(62.561035%, 84.901428%, 70.869446%)" offset="0.644531"/><stop stop-opacity="1" stop-color="rgb(62.338257%, 84.542847%, 71.551514%)" offset="0.648438"/><stop stop-opacity="1" stop-color="rgb(62.115479%, 84.182739%, 72.232056%)" offset="0.652344"/><stop stop-opacity="1" stop-color="rgb(61.8927%, 83.824158%, 72.914124%)" offset="0.65625"/><stop stop-opacity="1" stop-color="rgb(61.669922%, 83.46405%, 73.596191%)" offset="0.660156"/><stop stop-opacity="1" stop-color="rgb(61.447144%, 83.105469%, 74.278259%)" offset="0.664062"/><stop stop-opacity="1" stop-color="rgb(61.224365%, 82.745361%, 74.958801%)" offset="0.667969"/><stop stop-opacity="1" stop-color="rgb(61.003113%, 82.38678%, 75.640869%)" offset="0.671875"/><stop stop-opacity="1" stop-color="rgb(60.780334%, 82.026672%, 76.322937%)" offset="0.675781"/><stop stop-opacity="1" stop-color="rgb(60.557556%, 81.668091%, 77.005005%)" offset="0.679688"/><stop stop-opacity="1" stop-color="rgb(60.334778%, 81.307983%, 77.685547%)" offset="0.683594"/><stop stop-opacity="1" stop-color="rgb(60.112%, 80.949402%, 78.367615%)" offset="0.6875"/><stop stop-opacity="1" stop-color="rgb(59.889221%, 80.589294%, 79.049683%)" offset="0.691406"/><stop stop-opacity="1" stop-color="rgb(59.666443%, 80.230713%, 79.73175%)" offset="0.695312"/><stop stop-opacity="1" stop-color="rgb(59.443665%, 79.870605%, 80.412292%)" offset="0.699219"/><stop stop-opacity="1" stop-color="rgb(59.220886%, 79.512024%, 81.09436%)" offset="0.703125"/><stop stop-opacity="1" stop-color="rgb(58.998108%, 79.151917%, 81.776428%)" offset="0.707031"/><stop stop-opacity="1" stop-color="rgb(58.77533%, 78.793335%, 82.458496%)" offset="0.710938"/><stop stop-opacity="1" stop-color="rgb(58.552551%, 78.433228%, 83.139038%)" offset="0.714844"/><stop stop-opacity="1" stop-color="rgb(58.329773%, 78.074646%, 83.821106%)" offset="0.71875"/><stop stop-opacity="1" stop-color="rgb(58.106995%, 77.714539%, 84.501648%)" offset="0.722656"/><stop stop-opacity="1" stop-color="rgb(57.885742%, 77.355957%, 85.183716%)" offset="0.726562"/><stop stop-opacity="1" stop-color="rgb(57.662964%, 76.99585%, 85.865784%)" offset="0.730469"/><stop stop-opacity="1" stop-color="rgb(57.440186%, 76.637268%, 86.547852%)" offset="0.734375"/><stop stop-opacity="1" stop-color="rgb(57.217407%, 76.277161%, 87.228394%)" offset="0.738281"/><stop stop-opacity="1" stop-color="rgb(56.994629%, 75.918579%, 87.910461%)" offset="0.742188"/><stop stop-opacity="1" stop-color="rgb(56.771851%, 75.558472%, 88.592529%)" offset="0.746094"/><stop stop-opacity="1" stop-color="rgb(56.549072%, 75.19989%, 89.274597%)" offset="0.75"/><stop stop-opacity="1" stop-color="rgb(56.326294%, 74.839783%, 89.955139%)" offset="0.753906"/><stop stop-opacity="1" stop-color="rgb(56.103516%, 74.481201%, 90.637207%)" offset="0.757812"/><stop stop-opacity="1" stop-color="rgb(55.880737%, 74.121094%, 91.319275%)" offset="0.761719"/><stop stop-opacity="1" stop-color="rgb(55.657959%, 73.760986%, 92.001343%)" offset="0.765625"/><stop stop-opacity="1" stop-color="rgb(55.435181%, 73.400879%, 92.681885%)" offset="0.769531"/><stop stop-opacity="1" stop-color="rgb(55.213928%, 73.042297%, 93.363953%)" offset="0.773438"/><stop stop-opacity="1" stop-color="rgb(54.99115%, 72.68219%, 94.046021%)" offset="0.777344"/><stop stop-opacity="1" stop-color="rgb(54.768372%, 72.323608%, 94.728088%)" offset="0.78125"/><stop stop-opacity="1" stop-color="rgb(54.545593%, 71.963501%, 95.40863%)" offset="0.785156"/><stop stop-opacity="1" stop-color="rgb(54.322815%, 71.604919%, 96.090698%)" offset="0.789062"/><stop stop-opacity="1" stop-color="rgb(54.100037%, 71.244812%, 96.77124%)" offset="0.792969"/><stop stop-opacity="1" stop-color="rgb(53.877258%, 70.88623%, 97.453308%)" offset="0.796875"/><stop stop-opacity="1" stop-color="rgb(54.090881%, 70.677185%, 97.712708%)" offset="0.800781"/><stop stop-opacity="1" stop-color="rgb(54.30603%, 70.469666%, 97.973633%)" offset="0.804688"/><stop stop-opacity="1" stop-color="rgb(54.811096%, 70.362854%, 97.952271%)" offset="0.808594"/><stop stop-opacity="1" stop-color="rgb(55.317688%, 70.256042%, 97.930908%)" offset="0.8125"/><stop stop-opacity="1" stop-color="rgb(55.822754%, 70.147705%, 97.909546%)" offset="0.816406"/><stop stop-opacity="1" stop-color="rgb(56.329346%, 70.040894%, 97.888184%)" offset="0.820312"/><stop stop-opacity="1" stop-color="rgb(56.834412%, 69.932556%, 97.865295%)" offset="0.824219"/><stop stop-opacity="1" stop-color="rgb(57.341003%, 69.825745%, 97.843933%)" offset="0.828125"/><stop stop-opacity="1" stop-color="rgb(57.846069%, 69.717407%, 97.822571%)" offset="0.832031"/><stop stop-opacity="1" stop-color="rgb(58.352661%, 69.610596%, 97.801208%)" offset="0.835938"/><stop stop-opacity="1" stop-color="rgb(58.857727%, 69.502258%, 97.779846%)" offset="0.839844"/><stop stop-opacity="1" stop-color="rgb(59.364319%, 69.395447%, 97.758484%)" offset="0.84375"/><stop stop-opacity="1" stop-color="rgb(59.869385%, 69.288635%, 97.737122%)" offset="0.847656"/><stop stop-opacity="1" stop-color="rgb(60.375977%, 69.181824%, 97.715759%)" offset="0.851562"/><stop stop-opacity="1" stop-color="rgb(60.881042%, 69.073486%, 97.694397%)" offset="0.855469"/><stop stop-opacity="1" stop-color="rgb(61.387634%, 68.966675%, 97.673035%)" offset="0.859375"/><stop stop-opacity="1" stop-color="rgb(61.8927%, 68.858337%, 97.651672%)" offset="0.863281"/><stop stop-opacity="1" stop-color="rgb(62.399292%, 68.751526%, 97.63031%)" offset="0.867188"/><stop stop-opacity="1" stop-color="rgb(62.905884%, 68.643188%, 97.607422%)" offset="0.871094"/><stop stop-opacity="1" stop-color="rgb(63.412476%, 68.536377%, 97.58606%)" offset="0.875"/><stop stop-opacity="1" stop-color="rgb(63.917542%, 68.42804%, 97.564697%)" offset="0.878906"/><stop stop-opacity="1" stop-color="rgb(64.424133%, 68.321228%, 97.543335%)" offset="0.882812"/><stop stop-opacity="1" stop-color="rgb(64.929199%, 68.214417%, 97.521973%)" offset="0.886719"/><stop stop-opacity="1" stop-color="rgb(65.435791%, 68.107605%, 97.50061%)" offset="0.890625"/><stop stop-opacity="1" stop-color="rgb(65.940857%, 67.999268%, 97.479248%)" offset="0.894531"/><stop stop-opacity="1" stop-color="rgb(66.447449%, 67.892456%, 97.457886%)" offset="0.898438"/><stop stop-opacity="1" stop-color="rgb(66.952515%, 67.784119%, 97.436523%)" offset="0.902344"/><stop stop-opacity="1" stop-color="rgb(67.459106%, 67.677307%, 97.415161%)" offset="0.90625"/><stop stop-opacity="1" stop-color="rgb(67.964172%, 67.56897%, 97.393799%)" offset="0.910156"/><stop stop-opacity="1" stop-color="rgb(68.470764%, 67.462158%, 97.372437%)" offset="0.914062"/><stop stop-opacity="1" stop-color="rgb(68.97583%, 67.353821%, 97.349548%)" offset="0.917969"/><stop stop-opacity="1" stop-color="rgb(69.482422%, 67.247009%, 97.328186%)" offset="0.921875"/><stop stop-opacity="1" stop-color="rgb(69.987488%, 67.140198%, 97.306824%)" offset="0.925781"/><stop stop-opacity="1" stop-color="rgb(70.49408%, 67.033386%, 97.285461%)" offset="0.929688"/><stop stop-opacity="1" stop-color="rgb(70.999146%, 66.925049%, 97.264099%)" offset="0.933594"/><stop stop-opacity="1" stop-color="rgb(71.505737%, 66.818237%, 97.242737%)" offset="0.9375"/><stop stop-opacity="1" stop-color="rgb(72.010803%, 66.7099%, 97.221375%)" offset="0.941406"/><stop stop-opacity="1" stop-color="rgb(72.517395%, 66.603088%, 97.200012%)" offset="0.945312"/><stop stop-opacity="1" stop-color="rgb(73.022461%, 66.494751%, 97.17865%)" offset="0.949219"/><stop stop-opacity="1" stop-color="rgb(73.529053%, 66.387939%, 97.157288%)" offset="0.953125"/><stop stop-opacity="1" stop-color="rgb(74.034119%, 66.279602%, 97.135925%)" offset="0.957031"/><stop stop-opacity="1" stop-color="rgb(74.54071%, 66.172791%, 97.114563%)" offset="0.960938"/><stop stop-opacity="1" stop-color="rgb(75.045776%, 66.065979%, 97.093201%)" offset="0.964844"/><stop stop-opacity="1" stop-color="rgb(75.552368%, 65.959167%, 97.071838%)" offset="0.96875"/><stop stop-opacity="1" stop-color="rgb(76.057434%, 65.85083%, 97.04895%)" offset="0.972656"/><stop stop-opacity="1" stop-color="rgb(76.564026%, 65.744019%, 97.027588%)" offset="0.976562"/><stop stop-opacity="1" stop-color="rgb(77.069092%, 65.635681%, 97.006226%)" offset="0.980469"/><stop stop-opacity="1" stop-color="rgb(77.575684%, 65.52887%, 96.984863%)" offset="0.984375"/><stop stop-opacity="1" stop-color="rgb(78.08075%, 65.420532%, 96.963501%)" offset="0.988281"/><stop stop-opacity="1" stop-color="rgb(78.587341%, 65.313721%, 96.942139%)" offset="0.992188"/><stop stop-opacity="1" stop-color="rgb(79.092407%, 65.205383%, 96.920776%)" offset="0.996094"/><stop stop-opacity="1" stop-color="rgb(79.598999%, 65.098572%, 96.899414%)" offset="1"/></linearGradient><clipPath id="fc2bbaecf3"><path d="M 59 87.644531 L 316.570312 87.644531 L 316.570312 334.394531 L 59 334.394531 Z M 59 87.644531 " clip-rule="nonzero"/></clipPath></defs><g clip-path="url(#ea6ead40a2)"><g clip-path="url(#2ecf3fe2c9)"><path fill="url(#0f7e2f76c8)" d="M 37.5 37.5 L 37.5 337.5 L 337.5 337.5 L 337.5 37.5 Z M 37.5 37.5 " fill-rule="nonzero"/></g></g><path fill="#cdd6f4" d="M 244.558594 138.511719 C 244.558594 133.859375 251.324219 134.214844 251.324219 138.007812 C 251.324219 143.40625 244.558594 142.785156 244.558594 138.511719 Z M 240.046875 138.261719 C 240.046875 141.558594 241.726562 144.128906 244.546875 145.53125 C 246.734375 146.617188 248.140625 146.972656 250.65625 145.871094 C 252.3125 145.152344 253.90625 144.140625 254.753906 142.445312 C 255.8125 140.320312 256.320312 138.3125 255.421875 136.160156 C 255.167969 135.554688 255.132812 135.199219 254.902344 134.667969 C 254.523438 133.808594 253.777344 133.316406 253.144531 132.671875 C 252.828125 132.355469 252.601562 132.078125 252.222656 131.835938 L 251.375 131.433594 C 249.617188 130.570312 248.316406 130.207031 246.265625 130.699219 C 242.980469 131.496094 240.035156 134.757812 240.035156 138.261719 Z M 240.046875 138.261719 " fill-opacity="1" fill-rule="evenodd"/><path fill="#cdd6f4" d="M 211.734375 138.019531 C 210.101562 138.019531 208.03125 135.90625 209.140625 132.925781 C 209.382812 132.277344 209.445312 132.242188 209.902344 131.925781 C 211.492188 130.8125 213.023438 130.773438 214.554688 131.949219 C 215.894531 132.972656 216.640625 138.019531 211.734375 138.019531 Z M 204.210938 134.515625 C 204.210938 138.804688 207.914062 142.535156 212.734375 142.535156 C 213.011719 142.535156 215.160156 141.851562 215.628906 141.675781 C 216.4375 141.371094 217.957031 140.042969 218.613281 139.144531 C 219.941406 137.324219 220.28125 135.578125 220.042969 133.492188 C 219.890625 132.140625 219.167969 130.394531 218.257812 129.496094 C 215.691406 126.941406 214.65625 126.753906 211.230469 126.753906 C 208.308594 126.753906 204.210938 130.28125 204.210938 134.515625 Z M 204.210938 134.515625 " fill-opacity="1" fill-rule="evenodd"/><g clip-path="url(#fc2bbaecf3)"><path fill="#1e1e2e" d="M 240.058594 138.261719 C 240.058594 134.769531 243.003906 131.496094 246.292969 130.699219 C 248.339844 130.207031 249.644531 130.570312 251.402344 131.433594 L 252.25 131.835938 C 252.628906 132.078125 252.855469 132.355469 253.171875 132.671875 C 253.804688 133.316406 254.550781 133.808594 254.929688 134.667969 C 255.15625 135.199219 255.195312 135.542969 255.449219 136.160156 C 256.34375 138.3125 255.839844 140.320312 254.777344 142.445312 C 253.929688 144.140625 252.347656 145.152344 250.679688 145.871094 C 248.164062 146.972656 246.746094 146.617188 244.574219 145.53125 C 241.753906 144.128906 240.070312 141.558594 240.070312 138.261719 Z M 204.222656 134.503906 C 204.222656 130.257812 208.320312 126.742188 211.242188 126.742188 C 214.667969 126.742188 215.703125 126.929688 218.273438 129.484375 C 219.183594 130.382812 219.890625 132.128906 220.054688 133.480469 C 220.292969 135.566406 219.964844 137.324219 218.625 139.132812 C 217.96875 140.03125 216.449219 141.359375 215.640625 141.660156 C 215.171875 141.839844 213.011719 142.519531 212.746094 142.519531 C 207.929688 142.519531 204.222656 138.792969 204.222656 134.503906 Z M 62.625 107.683594 C 62.625 112.617188 65.824219 117.003906 69.910156 119.445312 C 70.480469 119.785156 70.921875 120.152344 71.453125 120.417969 C 72.238281 120.824219 72.503906 120.9375 73.261719 121.367188 C 73.980469 121.769531 74.476562 121.835938 75.144531 122.238281 L 78.597656 124.046875 C 80.253906 124.871094 82.0625 125.929688 83.492188 127.183594 C 83.78125 127.4375 83.832031 127.539062 84.148438 127.777344 L 85.679688 129.003906 C 85.929688 129.257812 86.019531 129.292969 86.347656 129.585938 L 89.472656 132.734375 C 89.507812 132.773438 89.558594 132.824219 89.597656 132.859375 L 95.539062 141.699219 C 95.921875 142.519531 96.1875 142.734375 96.453125 143.546875 C 96.957031 145.050781 97.511719 145.820312 97.816406 147.441406 C 98.132812 149.109375 98.726562 150.3125 98.90625 151.613281 C 99.867188 158.566406 98.917969 165.875 98.03125 172.667969 C 97.742188 174.867188 97.792969 184.464844 98.09375 186.5 C 98.386719 188.472656 100.015625 196.984375 100.710938 198.664062 C 101.027344 199.4375 101.21875 199.472656 101.445312 200.433594 L 102.417969 202.964844 C 102.585938 203.316406 102.632812 203.519531 102.75 203.886719 C 103.367188 205.796875 104.339844 207.097656 105.113281 208.78125 C 106.542969 211.902344 109.777344 216.683594 112.179688 219.011719 C 112.828125 219.640625 112.902344 219.453125 112.992188 220.464844 L 110.042969 221.03125 C 109.222656 221.148438 108.121094 221.527344 107.1875 221.691406 C 105.1875 222.042969 103.140625 222.03125 101.242188 222.511719 C 99.410156 222.980469 97.414062 223.144531 95.390625 223.421875 C 93.339844 223.714844 91.644531 224.296875 89.648438 224.445312 C 88.308594 224.546875 87.765625 224.574219 86.511719 224.828125 C 81.453125 225.851562 77.078125 226.332031 72.007812 227.117188 L 66.28125 228.164062 C 63.121094 228.558594 58.59375 230.289062 59.25 234.335938 C 59.832031 237.890625 66.015625 237.964844 68.886719 238.242188 C 71.226562 238.457031 72.527344 239 74.664062 239.230469 L 80.390625 240.265625 C 81.339844 240.480469 82.617188 240.570312 83.464844 240.695312 L 103.621094 245.84375 C 104.242188 246.082031 104.027344 246.121094 104.796875 246.425781 C 105.707031 246.777344 106.566406 246.714844 107.402344 247.082031 C 107.984375 247.335938 107.792969 247.398438 108.550781 247.6875 C 109.363281 247.992188 113.953125 249.191406 114.898438 249.863281 C 116.050781 250.671875 116.328125 251.683594 117.023438 252.746094 L 121.792969 259.75 C 124.105469 262.496094 126.75 265.0625 129.351562 267.476562 C 129.617188 267.71875 130.023438 268.046875 130.3125 268.273438 C 135.433594 272.394531 137.230469 273.496094 142.164062 276.734375 C 144.160156 278.046875 146.398438 279.351562 148.609375 280.3125 C 150.054688 280.933594 151.609375 281.90625 153.265625 282.4375 C 155.679688 283.207031 156.109375 282.675781 158.308594 284.15625 C 158.308594 286.179688 157.742188 287.632812 157.4375 289.554688 C 156.578125 295.070312 156.285156 300.46875 155.222656 305.890625 C 154.933594 307.382812 154.695312 309.8125 154.566406 311.496094 C 154.378906 313.808594 154.011719 314.492188 153.683594 316.617188 C 153.378906 318.5 153.441406 320.699219 153.113281 322.316406 C 152.46875 325.632812 151.519531 329.335938 153.644531 332.421875 C 154.515625 333.6875 155.769531 334.265625 157.3125 334.265625 C 159.195312 334.265625 161.472656 329.488281 162.039062 327.96875 L 166.542969 318.6875 C 166.996094 317.929688 167.023438 317.601562 167.441406 316.832031 C 168.121094 315.589844 168.792969 314.554688 169.425781 313.300781 C 171.246094 309.710938 173.496094 306.347656 175.59375 302.933594 C 175.808594 302.578125 175.898438 302.3125 176.125 301.960938 L 179.945312 296.257812 C 180.402344 295.613281 180.578125 295.207031 181.070312 294.625 L 189.453125 283.714844 C 191.074219 281.296875 192.679688 279.96875 195.382812 278.871094 L 200.820312 276.039062 L 213.515625 266.679688 C 213.605469 266.605469 213.882812 266.390625 213.933594 266.339844 L 229.460938 252.304688 C 230.675781 251.332031 231.21875 250.660156 232.320312 249.648438 C 232.925781 249.078125 233.21875 249.003906 233.835938 248.410156 L 239.351562 242.894531 C 239.917969 242.3125 239.96875 242.085938 240.476562 241.519531 L 250.199219 229.1875 L 260.984375 209.652344 C 261.582031 207.945312 262.945312 205.328125 263.386719 203.785156 C 264.324219 200.5625 266.789062 193.949219 267.234375 191.089844 C 267.496094 189.34375 267.914062 188.207031 268.332031 186.675781 C 268.710938 185.273438 269.597656 184.71875 270.746094 183.820312 C 271.796875 182.996094 272.644531 182.125 273.71875 181.277344 C 274.832031 180.40625 275.628906 179.632812 276.730469 178.773438 C 278.878906 177.078125 280.636719 175.472656 282.773438 173.792969 L 288.160156 169.417969 C 288.199219 169.378906 288.25 169.328125 288.285156 169.289062 L 290.738281 167.242188 C 291.03125 166.976562 290.789062 167.167969 291.117188 166.875 C 291.347656 166.671875 291.546875 166.535156 291.839844 166.34375 C 295.011719 164.167969 297.644531 161.199219 300.664062 158.871094 C 301.257812 158.414062 301.5625 158.101562 302.132812 157.582031 L 303.597656 156.292969 C 304.105469 155.847656 304.558594 155.457031 305.066406 155 C 308.101562 152.15625 311.933594 148.363281 314.535156 145.175781 C 315.105469 144.480469 315.269531 144.316406 315.675781 143.558594 C 315.761719 143.382812 315.902344 143.128906 315.941406 143.066406 C 316.28125 142.433594 316.472656 142.484375 316.472656 141.839844 C 316.472656 141.078125 315.445312 139.4375 314.964844 139.082031 C 314.132812 138.460938 313.121094 137.996094 312.109375 138.195312 L 307.621094 139.992188 C 305.179688 141.15625 302.851562 141.902344 300.539062 143.191406 C 300.007812 143.480469 299.90625 143.632812 299.261719 143.914062 C 298.65625 144.179688 298.441406 144.191406 297.84375 144.507812 C 297.148438 144.886719 297.351562 144.886719 296.570312 145.226562 L 289.867188 148.804688 C 289.183594 149.132812 288.957031 149.035156 288.273438 149.464844 C 285.71875 151.03125 282.8125 152.308594 280.257812 153.738281 L 277.625 155.128906 C 277.058594 155.394531 276.828125 155.382812 276.234375 155.746094 C 271.949219 158.402344 273.921875 154.105469 274.300781 151.054688 C 274.882812 146.367188 274.90625 133.050781 274.261719 128.421875 C 273.679688 124.25 273.515625 119.746094 272.554688 115.601562 C 272.039062 113.386719 271.9375 110.265625 271.40625 108.230469 C 271 106.660156 270.960938 104.675781 270.683594 103.183594 C 270.46875 102.082031 270.292969 101.816406 270.078125 100.78125 C 269.9375 100.136719 269.835938 99.210938 269.710938 98.390625 C 269.535156 97.152344 269.851562 95.332031 268.625 94.953125 C 267.433594 94.585938 267.484375 95.269531 266.601562 95.988281 C 266.171875 96.34375 265.980469 96.519531 265.511719 96.910156 L 263.402344 98.808594 C 262.855469 99.328125 262.707031 99.363281 262.160156 99.820312 L 257.039062 104.472656 C 250.820312 110.453125 252.347656 111.730469 246.582031 109.984375 C 244.15625 109.253906 237.769531 108.378906 235.039062 108 C 233.75 107.824219 232.410156 107.417969 231.234375 107.292969 L 227.007812 107.015625 C 225.582031 106.9375 223.9375 107.140625 222.53125 106.976562 C 215.703125 106.207031 216.652344 108.492188 213.085938 102.640625 C 211.910156 100.703125 210.722656 99.074219 209.394531 97.304688 C 207.332031 94.558594 203.640625 89.515625 200.949219 87.707031 C 199.824219 89.84375 199.582031 92.421875 199.050781 94.824219 C 198.734375 96.265625 198.34375 96.59375 198.050781 98.351562 C 197.925781 99.113281 197.863281 99.65625 197.710938 100.238281 C 197.496094 101.019531 197.355469 101.058594 197.105469 101.894531 C 196.726562 103.183594 196.710938 104.347656 196.269531 105.558594 L 192.375 119.710938 C 191.730469 121.480469 190.441406 128.054688 189.730469 130.597656 C 189.390625 131.847656 189.316406 133.089844 189.136719 134.515625 C 188.984375 135.820312 188.605469 136.867188 188.40625 138.296875 C 188.074219 140.664062 187.925781 143.914062 187.925781 146.582031 C 187.925781 151.917969 188.253906 152.421875 189.113281 156.671875 C 189.316406 157.695312 189.605469 158.984375 189.683594 159.855469 C 187.683594 160.90625 184.09375 159.921875 181.765625 159.503906 C 179.046875 158.996094 176.0625 158.996094 173.371094 158.632812 C 170.511719 158.238281 167.90625 157.71875 165.113281 157.605469 C 163.695312 157.542969 162.570312 157.265625 161.167969 157.039062 L 152.808594 156.128906 C 151.40625 155.9375 150.507812 155.671875 148.964844 155.457031 C 146.03125 155.039062 143.375 155.117188 140.582031 154.8125 C 137.597656 154.496094 130.792969 153.179688 130.023438 157.140625 C 129.605469 159.261719 130.277344 160.617188 132.121094 161.515625 C 132.765625 161.828125 132.375 161.578125 132.945312 161.945312 L 135.082031 163.070312 C 135.714844 163.4375 135.902344 163.574219 136.574219 163.839844 L 141.300781 166.128906 C 141.921875 166.394531 142.390625 166.382812 143.007812 166.671875 C 143.882812 167.078125 143.375 167.140625 144.652344 167.53125 L 151.113281 170.085938 C 151.925781 170.316406 152.164062 170.339844 152.820312 170.644531 C 154.578125 171.441406 158.207031 172.375 159.625 173.109375 C 160.445312 173.539062 160.105469 173.476562 161.230469 173.753906 C 162.027344 173.945312 162.269531 173.957031 162.964844 174.273438 L 173.269531 177.75 C 174.382812 178.078125 173.988281 178.140625 174.796875 178.46875 L 178.226562 179.558594 C 180.855469 180.621094 179.996094 179.722656 182.890625 181.667969 C 180.867188 184.703125 177.730469 187.992188 175.214844 190.535156 L 167.023438 198.132812 C 166.476562 198.589844 166.046875 198.96875 165.515625 199.386719 L 162.609375 201.484375 C 162.570312 201.523438 162.507812 201.558594 162.46875 201.597656 C 162.433594 201.636719 162.367188 201.675781 162.332031 201.710938 C 162.292969 201.75 162.230469 201.789062 162.191406 201.824219 L 158.308594 204.457031 C 157.3125 205.101562 157.058594 205.503906 155.855469 206.011719 C 154.894531 206.414062 155.058594 206.492188 154.300781 206.972656 C 151.910156 208.464844 144.261719 212.421875 141.542969 213.257812 L 135.699219 215.429688 C 134.839844 215.8125 134.398438 215.734375 133.550781 216.039062 C 131.554688 216.757812 131.691406 217.441406 127 214.253906 C 126.546875 213.953125 126.445312 213.8125 125.988281 213.523438 C 122.753906 211.460938 117.480469 206.1875 115.394531 202.558594 C 114.179688 200.449219 113.359375 199.144531 112.359375 196.816406 C 111.082031 193.835938 110.472656 192.128906 109.894531 188.761719 C 108.792969 182.492188 109.527344 179.078125 110.171875 172.867188 C 111.144531 163.535156 111.207031 165.726562 111.207031 155.367188 C 111.207031 152.8125 109.539062 142.496094 108.589844 139.6875 C 107.933594 137.753906 106.695312 133.355469 105.898438 131.863281 C 105.378906 130.902344 105.277344 130.15625 104.773438 129.21875 C 104.40625 128.523438 104.457031 128.8125 104.164062 128.066406 C 102.710938 124.464844 100.484375 120.859375 98.246094 117.699219 C 97.917969 117.230469 97.878906 117.09375 97.5625 116.625 L 85.160156 103.726562 C 84.765625 103.398438 84.527344 103.335938 84.109375 103.019531 L 77.144531 99.210938 C 73.792969 97.492188 68.214844 97.519531 65.699219 100.339844 C 64.546875 101.628906 63.421875 102.84375 63.082031 104.726562 C 62.878906 105.839844 62.589844 106.523438 62.589844 107.734375 Z M 62.625 107.683594 " fill-opacity="1" fill-rule="evenodd"/></g><path fill="#1e1e2e" d="M 211.734375 138.019531 C 216.640625 138.019531 215.882812 132.972656 214.554688 131.949219 C 213.011719 130.761719 211.480469 130.8125 209.902344 131.925781 C 209.445312 132.242188 209.382812 132.292969 209.140625 132.925781 C 208.03125 135.90625 210.101562 138.019531 211.734375 138.019531 Z M 211.734375 138.019531 " fill-opacity="1" fill-rule="evenodd"/><path fill="#1e1e2e" d="M 244.558594 138.511719 C 244.558594 142.785156 251.324219 143.40625 251.324219 138.007812 C 251.324219 134.214844 244.558594 133.859375 244.558594 138.511719 Z M 244.558594 138.511719 " fill-opacity="1" fill-rule="evenodd"/></svg>