<svg xmlns="http://www.w3.org/2000/svg" xmlns:xlink="http://www.w3.org/1999/xlink" width="1500" zoomAndPan="magnify" viewBox="0 0 1125 1124.99995" height="1500" preserveAspectRatio="xMidYMid meet" version="1.0"><defs><clipPath id="5f1c7034c8"><path d="M 112.5 230 L 1012 230 L 1012 671 L 112.5 671 Z M 112.5 230 " clip-rule="nonzero"/></clipPath></defs><g clip-path="url(#5f1c7034c8)"><path fill="#1e1e2e" d="M 121.761719 498.464844 L 112.5 498.464844 L 115.015625 472.929688 C 115.015625 472.929688 1006.492188 463.867188 1009.515625 463.363281 C 1012.535156 462.859375 1012.03125 492.566406 1009.515625 493.070312 C 1006.996094 493.574219 1002.484375 493.449219 1002.484375 493.449219 C 1002.484375 493.449219 858.5 668.285156 722.089844 670.011719 C 585.679688 671.757812 121.761719 498.464844 121.761719 498.464844 Z M 770.714844 417.976562 C 768.464844 414.382812 578.109375 225.371094 570.464844 230.75 C 544.878906 247.8125 378.308594 417.078125 377.410156 419.777344 C 376.511719 422.472656 391.183594 437.289062 391.183594 437.289062 L 399.511719 428.03125 L 737.320312 423.03125 C 737.320312 423.03125 753.648438 436.839844 755.898438 437.289062 C 758.144531 437.738281 772.960938 421.574219 770.714844 417.976562 Z M 770.714844 417.976562 " fill-opacity="1" fill-rule="nonzero"/></g><path fill="#f38ba8" d="M 391.203125 895.148438 C 391.203125 895.148438 125.070312 898.457031 121.761719 895.148438 C 118.453125 891.839844 113.34375 508.066406 121.761719 498.445312 C 130.175781 488.828125 996.496094 488.609375 1002.5 493.410156 C 1002.914062 534.914062 1004.535156 834.835938 1000.738281 895.417969 C 993.527344 899.519531 737.714844 897.253906 737.714844 897.253906 C 737.714844 897.253906 426.359375 839.296875 391.203125 895.148438 Z M 391.203125 895.148438 " fill-opacity="1" fill-rule="nonzero"/><path fill="#eba0ac" d="M 391.203125 895.148438 C 391.09375 891.066406 397.855469 433.011719 399.527344 428.011719 C 401.203125 423.011719 565.933594 263.261719 575.914062 259.933594 C 585.894531 256.605469 733.996094 416.359375 737.320312 423.011719 C 740.648438 429.664062 748.34375 890.832031 738.363281 897.089844 C 735.558594 898.207031 724.140625 893.691406 711.75 893.53125 C 653.039062 892.703125 545.113281 870.925781 430.277344 895.4375 C 414.003906 895.21875 401.578125 895.542969 391.203125 895.148438 Z M 391.203125 895.148438 " fill-opacity="1" fill-rule="nonzero"/><path fill="#1e1e2e" d="M 563.003906 708.296875 C 562.265625 708.296875 561.546875 708.296875 560.808594 708.296875 C 561.527344 708.296875 562.265625 708.296875 563.003906 708.296875 Z M 621.714844 710.292969 C 619.304688 708.855469 591.109375 708.242188 563.128906 708.296875 C 563.542969 737.554688 564.945312 844.601562 563.019531 843.953125 C 561.007812 843.289062 560.664062 730.054688 560.613281 708.296875 C 533.207031 708.386719 506.773438 709.105469 505.839844 710.273438 C 504.058594 712.488281 505.15625 825.71875 505.710938 846.578125 C 546.246094 847.117188 589.90625 847.261719 627.917969 846.957031 C 627.523438 818.203125 625.886719 712.792969 621.714844 710.292969 Z M 450.363281 627.179688 C 452.503906 628.242188 545.238281 627.179688 545.238281 627.179688 C 545.238281 627.179688 546.296875 531.226562 545.777344 529.628906 C 545.238281 528.027344 452.988281 529.933594 451.390625 530.453125 C 449.789062 530.976562 450.363281 627.179688 450.363281 627.179688 Z M 700.710938 530.453125 C 699.109375 529.914062 606.863281 528.027344 606.320312 529.628906 C 605.78125 531.226562 606.863281 627.179688 606.863281 627.179688 C 606.863281 627.179688 699.613281 628.242188 701.734375 627.179688 C 701.753906 627.179688 702.308594 530.996094 700.710938 530.453125 Z M 775.730469 841.777344 C 780.605469 845.804688 855.75 844.601562 857.835938 841.777344 C 859.921875 838.953125 858.539062 699.523438 857.835938 697.5625 C 857.136719 695.601562 782.691406 696.25 777.117188 699.394531 C 771.558594 702.578125 775.730469 841.777344 775.730469 841.777344 Z M 890.546875 841.777344 C 895.417969 845.804688 971.949219 846.792969 974.035156 843.953125 C 976.121094 841.128906 974.035156 701.464844 973.335938 699.523438 C 972.632812 697.5625 897.488281 696.25 891.929688 699.414062 C 886.375 702.578125 890.546875 841.777344 890.546875 841.777344 Z M 972.886719 525.960938 C 967.3125 522.792969 890.148438 526.011719 889.449219 527.972656 C 888.746094 529.933594 888.0625 667.40625 890.148438 670.230469 C 892.234375 673.050781 967.382812 674.257812 972.257812 670.230469 C 972.257812 670.210938 978.460938 529.105469 972.886719 525.960938 Z M 856.054688 527.847656 C 850.480469 524.683594 776.035156 524.054688 775.335938 526.011719 C 774.632812 527.972656 773.25 667.386719 775.335938 670.230469 C 777.421875 673.070312 852.566406 674.257812 857.441406 670.230469 C 857.441406 670.210938 861.613281 531.011719 856.054688 527.847656 Z M 357.59375 699.414062 C 352.019531 696.25 277.574219 695.621094 276.875 697.578125 C 276.171875 699.539062 274.789062 838.953125 276.875 841.796875 C 278.960938 844.617188 354.105469 845.824219 358.980469 841.796875 C 358.980469 841.777344 363.167969 702.578125 357.59375 699.414062 Z M 242.796875 699.414062 C 237.222656 696.25 162.078125 697.578125 161.394531 699.523438 C 160.710938 701.464844 158.605469 841.128906 160.691406 843.953125 C 162.777344 846.777344 239.308594 845.789062 244.183594 841.777344 C 244.183594 841.777344 248.355469 702.578125 242.796875 699.414062 Z M 162.472656 670.210938 C 167.34375 674.238281 242.492188 673.035156 244.578125 670.210938 C 246.664062 667.386719 245.960938 529.898438 245.277344 527.957031 C 244.578125 525.996094 167.417969 522.777344 161.84375 525.941406 C 156.269531 529.105469 162.472656 670.210938 162.472656 670.210938 Z M 277.289062 670.210938 C 282.160156 674.238281 357.308594 673.035156 359.394531 670.210938 C 361.480469 667.386719 360.09375 527.957031 359.394531 525.996094 C 358.691406 524.035156 284.246094 524.683594 278.671875 527.828125 C 273.117188 531.011719 277.289062 670.210938 277.289062 670.210938 Z M 277.289062 670.210938 " fill-opacity="1" fill-rule="nonzero"/><path fill="#f5e0dc" d="M 811.28125 627.574219 L 811.28125 664.851562 C 796.75 664.527344 783.734375 663.917969 783.875 662.800781 C 783.984375 661.921875 783.914062 646.257812 783.804688 626.136719 C 790.007812 626.695312 800.167969 627.164062 811.28125 627.574219 Z M 811.28125 576.882812 C 799.179688 577.152344 788.265625 577.335938 783.570312 577.40625 C 783.605469 590.316406 783.695312 604.523438 783.769531 617.558594 C 789.992188 617.882812 800.222656 618.386719 811.300781 618.925781 L 811.300781 576.882812 Z M 811.28125 569.1875 L 811.28125 533.925781 C 797.6875 533.621094 785.261719 533.621094 783.875 534.175781 C 783.554688 534.304688 783.5 549.910156 783.535156 570.195312 Z M 579.871094 434.214844 C 641.675781 431.066406 634.769531 331.699219 566.007812 343.425781 C 518.085938 351.605469 517.347656 437.398438 579.871094 434.214844 Z M 474.550781 493 C 472.320312 488.628906 472.859375 461.207031 474.550781 460.039062 C 480.320312 456.046875 662.730469 453.367188 666.867188 454.03125 C 671.019531 454.695312 670.714844 490.03125 666.867188 492.980469 C 663.019531 495.929688 476.761719 497.367188 474.550781 493 Z M 726.386719 826.835938 C 725.757812 824.730469 724.914062 821.761719 724.355469 819.785156 C 729.445312 817.070312 733.3125 812.105469 733.3125 806.40625 C 733.3125 797.8125 726.335938 790.835938 717.738281 790.835938 C 708.695312 790.835938 702.167969 797.8125 702.167969 806.40625 C 702.167969 812.953125 705.167969 818.542969 710.402344 820.847656 L 708.945312 826.636719 C 704.828125 826.761719 701.753906 827.03125 701.320312 827.535156 C 700.367188 828.667969 700.710938 859.707031 701.015625 879.933594 L 690.226562 879.933594 L 690.226562 868.191406 L 677.386719 868.191406 L 677.386719 857.441406 L 663.722656 855.949219 L 663.722656 845.96875 L 663.414062 845.96875 L 663.414062 840.320312 L 658.738281 840.320312 L 658.738281 693.335938 L 663.414062 693.101562 L 663.414062 685.875 C 668.34375 685.550781 671.363281 685.261719 671.921875 685.011719 C 676.992188 682.726562 675.300781 665.246094 675.300781 665.246094 C 675.300781 665.246094 458.472656 668.285156 455.9375 670.570312 C 453.402344 672.855469 455.9375 689.578125 455.9375 689.578125 C 456.191406 690.136719 460.792969 690.476562 468.488281 690.636719 L 468.488281 696.464844 L 474.351562 696.464844 C 474.351562 727.429688 474.351562 805.777344 474.351562 840.320312 L 468.488281 840.320312 L 468.488281 855.949219 L 454.824219 857.441406 L 454.824219 868.191406 L 441.984375 868.191406 L 441.984375 879.933594 L 433.136719 879.933594 C 433.460938 859.796875 433.839844 827.03125 432.867188 825.863281 C 432.4375 825.34375 429.269531 825.070312 425.082031 824.945312 L 423.644531 819.210938 C 428.964844 816.945312 432.039062 811.316406 432.039062 804.699219 C 432.039062 796.101562 425.511719 789.125 416.46875 789.125 C 407.871094 789.125 400.894531 796.101562 400.894531 804.699219 C 400.894531 810.34375 404.671875 815.273438 409.6875 817.988281 C 409.132812 819.964844 408.269531 822.984375 407.621094 825.125 C 403.449219 825.304688 400.390625 825.574219 400.230469 825.828125 C 399.671875 826.671875 399.097656 895.382812 399.097656 895.382812 L 425.496094 895.382812 L 425.496094 895.976562 C 504.578125 896.980469 639.785156 896.226562 701.355469 896.929688 C 701.355469 896.980469 701.355469 897.054688 701.355469 897.054688 L 735.128906 897.054688 C 735.128906 897.054688 734.550781 828.34375 733.996094 827.5 C 733.777344 827.285156 730.648438 827.015625 726.386719 826.835938 Z M 637.105469 840.320312 L 630.003906 840.320312 C 630.003906 840.320312 629.84375 843.253906 629.808594 845.96875 L 498.609375 845.96875 L 498.609375 840.320312 L 492.964844 840.320312 L 492.964844 696.464844 L 500.695312 696.464844 L 500.695312 690.710938 C 538.710938 690.351562 592.835938 688.914062 630.023438 687.472656 L 630.023438 694.738281 L 637.125 694.398438 L 637.125 840.320312 Z M 458.3125 577.316406 C 458.257812 557.464844 458.457031 537.953125 459.085938 536.964844 L 460.398438 536.964844 C 462.089844 535.886719 478.722656 535.8125 496.074219 536.046875 C 495.859375 542.773438 495.355469 558.472656 494.832031 574.886719 Z M 537.074219 536.964844 C 537.074219 536.964844 537.234375 553.632812 537.324219 572.03125 L 503.554688 574.296875 L 505.066406 536.191406 C 521.914062 536.480469 537.074219 536.964844 537.074219 536.964844 Z M 459.085938 620.003906 C 458.742188 619.269531 458.4375 602.652344 458.347656 584.472656 C 463.816406 584.363281 478.453125 583.753906 494.582031 583.015625 C 494.078125 598.554688 493.574219 613.476562 493.304688 620.796875 C 475.699219 620.886719 459.425781 620.742188 459.085938 620.003906 Z M 503.230469 582.621094 C 515.640625 582.046875 528.117188 581.46875 537.359375 581.019531 C 537.449219 600.800781 537.433594 619.789062 537.054688 620.003906 C 536.695312 620.203125 519.722656 620.582031 501.722656 620.742188 Z M 656.023438 536.046875 C 673.378906 535.8125 690.027344 535.902344 691.699219 536.964844 L 693.011719 536.964844 C 693.644531 537.972656 693.839844 557.464844 693.785156 577.316406 L 657.246094 574.871094 C 656.726562 558.472656 656.238281 542.773438 656.023438 536.046875 Z M 647.035156 536.171875 L 648.542969 574.277344 L 614.773438 572.011719 C 614.882812 553.617188 615.027344 536.945312 615.027344 536.945312 C 615.027344 536.945312 630.183594 536.480469 647.035156 536.171875 Z M 658.8125 620.796875 C 658.542969 613.476562 658.039062 598.554688 657.535156 583.015625 C 673.664062 583.734375 688.300781 584.363281 693.769531 584.472656 C 693.660156 602.652344 693.375 619.269531 693.03125 620.003906 C 692.671875 620.742188 676.398438 620.886719 658.8125 620.796875 Z M 614.738281 581.019531 C 623.980469 581.46875 636.460938 582.046875 648.867188 582.621094 L 650.378906 620.742188 C 632.359375 620.582031 615.402344 620.203125 615.042969 620.003906 C 614.664062 619.789062 614.648438 600.800781 614.738281 581.019531 Z M 935.484375 571.8125 L 934.277344 533.351562 C 949.617188 533.242188 964.289062 533.546875 965.261719 533.710938 C 966 533.835938 966.195312 551.332031 966.140625 573.433594 Z M 965.765625 624.160156 L 937.15625 624.339844 L 935.714844 578.96875 L 966.105469 579.921875 C 966.050781 594.398438 965.910156 610.222656 965.765625 624.160156 Z M 937.390625 631.820312 C 947.855469 631.945312 957.925781 632 965.65625 631.890625 C 965.441406 650.105469 965.242188 663.539062 965.242188 663.539062 L 938.414062 664.222656 Z M 927.964844 571.417969 L 897.234375 569.78125 C 897.253906 551.242188 897.628906 537.089844 898.726562 535.9375 C 900.203125 534.394531 912.734375 533.691406 926.527344 533.457031 Z M 930.25 631.730469 L 931.472656 664.402344 L 898.726562 665.230469 C 898.726562 665.230469 898.332031 650.539062 897.953125 631.046875 C 906.890625 631.28125 918.527344 631.53125 930.25 631.730469 Z M 929.960938 624.394531 L 897.828125 624.589844 C 897.558594 609.683594 897.308594 592.78125 897.253906 577.746094 L 928.253906 578.71875 Z M 849.941406 628.796875 C 850.050781 649.386719 850.085938 665.230469 850.085938 665.230469 C 850.085938 665.230469 833.003906 665.25 816.191406 664.941406 C 815.847656 657.859375 815.757812 644.011719 815.777344 627.71875 C 827.769531 628.152344 840.359375 628.511719 849.941406 628.796875 Z M 849.90625 620.597656 C 840.898438 620.292969 828.128906 619.71875 815.8125 619.140625 C 815.867188 605.367188 815.992188 590.496094 816.15625 576.777344 C 828.417969 576.488281 841.183594 576.128906 849.546875 575.699219 C 849.707031 589.886719 849.816406 605.996094 849.90625 620.597656 Z M 849.457031 567.820312 L 816.246094 569.007812 C 816.425781 554.300781 816.605469 541.566406 816.710938 534.050781 C 832.390625 534.5 847.890625 535.308594 848.523438 536.171875 C 848.917969 536.710938 849.222656 549.984375 849.457031 567.820312 Z M 964.902344 743.019531 L 933.882812 742.589844 L 934.421875 705.996094 L 964.308594 705.996094 C 964.308594 705.996094 964.578125 722.105469 964.902344 743.019531 Z M 965.691406 796.28125 L 933.109375 795.582031 L 933.773438 749.3125 L 964.972656 749.3125 C 965.226562 764.453125 965.476562 781.375 965.691406 796.28125 Z M 966.140625 836.722656 C 966 837.15625 949.132812 837.246094 932.515625 836.976562 L 933.019531 802.683594 C 946.019531 802.863281 957.402344 802.972656 965.800781 802.953125 C 966.050781 822.070312 966.230469 836.453125 966.140625 836.722656 Z M 900.003906 749.296875 L 926.238281 749.296875 L 926.238281 795.417969 L 899.949219 794.84375 C 899.914062 780.386719 899.933594 764.023438 900.003906 749.296875 Z M 900.417969 705.996094 L 926.238281 705.996094 L 926.238281 742.480469 L 900.039062 742.101562 C 900.128906 722.054688 900.273438 706.589844 900.417969 705.996094 Z M 899.949219 802.109375 C 909.03125 802.289062 917.898438 802.449219 926.222656 802.578125 L 926.222656 836.851562 C 912.664062 836.527344 900.757812 835.953125 900.398438 835.050781 C 900.128906 834.367188 900.003906 820.503906 899.949219 802.109375 Z M 819.964844 706.390625 C 835.503906 706.085938 850.105469 705.996094 850.105469 705.996094 L 850.105469 741.402344 L 819.15625 740.96875 Z M 818.960938 749.296875 L 850.105469 749.296875 L 850.105469 793.765625 L 817.933594 793.0625 Z M 817.753906 800.273438 C 827.445312 800.507812 838.46875 800.777344 850.085938 801.046875 L 850.085938 834.207031 L 816.945312 834.207031 Z M 783.535156 708.296875 C 784.09375 707.46875 797.003906 706.929688 811.28125 706.570312 C 811.28125 714.375 811.28125 726.746094 811.28125 740.84375 L 783.480469 740.449219 C 783.191406 722.46875 783.121094 708.910156 783.535156 708.296875 Z M 783.644531 749.296875 L 811.28125 749.296875 C 811.28125 763.539062 811.28125 778.914062 811.28125 792.921875 L 784.578125 792.34375 C 784.253906 778.5 783.914062 763.105469 783.644531 749.296875 Z M 784.757812 799.429688 C 789.828125 799.554688 799.214844 799.808594 811.28125 800.113281 C 811.28125 814.734375 811.28125 827.175781 811.28125 834.207031 L 785.640625 834.207031 C 785.65625 834.207031 785.242188 819.136719 784.757812 799.429688 Z M 168.585938 573.449219 C 168.53125 551.351562 168.730469 533.851562 169.46875 533.726562 C 170.4375 533.566406 185.113281 533.242188 200.449219 533.367188 L 199.226562 571.832031 Z M 197.574219 624.339844 L 168.964844 624.160156 C 168.800781 610.207031 168.675781 594.398438 168.605469 579.921875 L 198.992188 578.96875 Z M 169.054688 631.890625 C 176.785156 632 186.875 631.964844 197.320312 631.820312 L 196.296875 664.222656 L 169.46875 663.539062 C 169.484375 663.539062 169.269531 650.105469 169.054688 631.890625 Z M 236 535.9375 C 237.097656 537.089844 237.476562 551.242188 237.492188 569.78125 L 206.761719 571.417969 L 208.199219 533.441406 C 221.992188 533.691406 234.527344 534.375 236 535.9375 Z M 204.476562 631.730469 C 216.183594 631.550781 227.835938 631.28125 236.773438 631.0625 C 236.394531 650.558594 236 665.25 236 665.25 L 203.253906 664.421875 Z M 206.472656 578.738281 L 237.476562 577.765625 C 237.421875 592.78125 237.167969 609.683594 236.898438 624.609375 L 204.765625 624.410156 Z M 318.933594 627.738281 C 318.96875 644.011719 318.863281 657.875 318.519531 664.960938 C 301.707031 665.265625 284.625 665.25 284.625 665.25 C 284.625 665.25 284.660156 649.40625 284.769531 628.816406 C 294.371094 628.511719 306.957031 628.152344 318.933594 627.738281 Z M 318.914062 619.140625 C 306.597656 619.71875 293.832031 620.292969 284.820312 620.597656 C 284.910156 605.996094 285.019531 589.902344 285.179688 575.699219 C 293.542969 576.128906 306.328125 576.488281 318.574219 576.777344 C 318.71875 590.480469 318.863281 605.367188 318.914062 619.140625 Z M 318.484375 569.007812 L 285.269531 567.820312 C 285.503906 549.984375 285.8125 536.710938 286.207031 536.171875 C 286.835938 535.328125 302.335938 534.5 318.015625 534.050781 C 318.140625 541.585938 318.320312 554.300781 318.484375 569.007812 Z M 323.429688 664.851562 L 323.429688 627.574219 C 334.542969 627.164062 344.71875 626.695312 350.90625 626.136719 C 350.796875 646.257812 350.726562 661.921875 350.832031 662.800781 C 350.976562 663.933594 337.957031 664.527344 323.429688 664.851562 Z M 350.960938 617.558594 C 344.738281 617.882812 334.507812 618.386719 323.429688 618.925781 L 323.429688 576.882812 C 335.53125 577.152344 346.445312 577.335938 351.140625 577.40625 C 351.101562 590.316406 351.03125 604.523438 350.960938 617.558594 Z M 351.175781 570.175781 L 323.429688 569.1875 L 323.429688 533.925781 C 337.023438 533.621094 349.449219 533.621094 350.832031 534.175781 C 351.15625 534.304688 351.230469 549.894531 351.175781 570.175781 Z M 200.304688 705.996094 L 200.84375 742.589844 L 169.828125 743.019531 C 170.148438 722.105469 170.421875 705.996094 170.421875 705.996094 Z M 169.738281 749.296875 L 200.9375 749.296875 L 201.601562 795.5625 L 169.015625 796.265625 C 169.234375 781.375 169.503906 764.453125 169.738281 749.296875 Z M 201.707031 802.683594 L 202.210938 836.976562 C 185.597656 837.265625 168.730469 837.15625 168.585938 836.722656 C 168.496094 836.453125 168.65625 822.070312 168.925781 802.9375 C 177.34375 802.972656 188.707031 802.863281 201.707031 802.683594 Z M 234.722656 749.296875 C 234.777344 764.023438 234.8125 780.386719 234.796875 794.84375 L 208.507812 795.417969 L 208.507812 749.296875 Z M 234.308594 705.996094 C 234.453125 706.570312 234.597656 722.054688 234.6875 742.101562 L 208.488281 742.480469 L 208.488281 705.996094 Z M 208.507812 802.578125 C 216.832031 802.449219 225.695312 802.289062 234.777344 802.109375 C 234.722656 820.503906 234.578125 834.351562 234.308594 835.050781 C 233.949219 835.953125 222.0625 836.527344 208.488281 836.851562 L 208.488281 802.578125 Z M 315.570312 740.96875 L 284.625 741.402344 L 284.625 705.996094 C 284.625 705.996094 299.226562 706.085938 314.761719 706.390625 Z M 316.792969 793.082031 L 284.625 793.785156 L 284.625 749.3125 L 315.769531 749.3125 Z M 316.972656 800.273438 L 317.765625 834.207031 L 284.625 834.207031 L 284.625 801.046875 C 296.257812 800.777344 307.28125 800.507812 316.972656 800.273438 Z M 351.191406 708.296875 C 351.605469 708.910156 351.535156 722.46875 351.230469 740.46875 L 323.429688 740.863281 C 323.429688 726.746094 323.429688 714.394531 323.429688 706.589844 C 337.726562 706.929688 350.636719 707.46875 351.191406 708.296875 Z M 323.429688 749.296875 L 351.066406 749.296875 C 350.816406 763.089844 350.457031 778.480469 350.132812 792.34375 L 323.429688 792.921875 C 323.429688 778.929688 323.429688 763.554688 323.429688 749.296875 Z M 323.429688 800.113281 C 335.496094 799.808594 344.882812 799.574219 349.953125 799.429688 C 349.46875 819.136719 349.054688 834.207031 349.054688 834.207031 L 323.429688 834.207031 C 323.429688 827.175781 323.429688 814.714844 323.429688 800.113281 Z M 323.429688 800.113281 " fill-opacity="1" fill-rule="nonzero"/><path fill="#1e1e2e" d="M 571.453125 390.265625 C 565.558594 381.382812 552.160156 360.847656 553.5625 358.960938 C 554.949219 357.125 568.902344 379.945312 573.722656 387.964844 C 574.367188 387.660156 575.140625 387.480469 576.039062 387.480469 C 577.550781 387.460938 578.738281 388.039062 579.566406 388.882812 C 589.203125 384.78125 612.113281 375.199219 612.5625 376.636719 C 612.976562 377.96875 592.082031 386.867188 580.949219 391.507812 C 581.363281 393.484375 580.769531 395.699219 579.027344 396.902344 C 577.730469 397.785156 575.84375 398.089844 574.332031 397.476562 C 573.847656 397.28125 573.414062 397.011719 573.019531 396.6875 C 571.09375 395.121094 570.539062 392.351562 571.453125 390.265625 Z M 497.261719 690.640625 C 496.792969 690.296875 468.472656 690.640625 468.472656 690.640625 L 468.472656 692.222656 C 468.453125 692.222656 500.191406 692.777344 497.261719 690.640625 Z M 474.316406 696.464844 L 474.316406 697.488281 C 474.316406 697.488281 490.589844 698.171875 490.195312 697.488281 C 489.796875 696.804688 474.316406 696.464844 474.316406 696.464844 Z M 660.789062 686.429688 C 660.429688 685.226562 632.882812 686.664062 632.394531 687.636719 C 632 688.410156 661.148438 687.636719 660.789062 686.429688 Z M 655.484375 694.378906 C 655.125 693.191406 637.105469 694.378906 637.105469 694.378906 L 637.105469 695.457031 C 637.105469 695.457031 655.84375 695.582031 655.484375 694.378906 Z M 656.257812 839.816406 C 656.367188 839.367188 638.941406 838.71875 637.953125 839.816406 C 637.519531 840.285156 656.148438 840.25 656.257812 839.816406 Z M 474.316406 840.320312 C 474.316406 840.320312 491.203125 839.980469 491.292969 839.476562 C 491.398438 838.972656 474.316406 838.972656 474.316406 838.972656 Z M 659.820312 855.949219 C 661.078125 854.09375 468.472656 854.472656 468.472656 854.472656 L 468.472656 855.949219 C 468.453125 855.949219 658.542969 857.800781 659.820312 855.949219 Z M 674.167969 868.554688 C 674.960938 867.457031 456.875 864.328125 455.777344 867.617188 C 455.472656 868.554688 673.378906 869.648438 674.167969 868.554688 Z M 568.882812 879.539062 C 506.792969 879.214844 443.890625 877.832031 443.890625 879.808594 C 443.890625 882.058594 687.636719 881.839844 688.429688 879.972656 C 688.804688 879.054688 629.230469 879.863281 568.882812 879.539062 Z M 723.296875 820.648438 C 723.601562 820.46875 723.761719 819.859375 723.296875 820.128906 C 722.828125 820.378906 719.84375 821.710938 716.570312 821.816406 C 713.316406 821.925781 710.382812 820.863281 710.742188 821.402344 C 712.558594 822.664062 718.960938 823.148438 723.296875 820.648438 Z M 709.324219 826.566406 C 709.378906 826.636719 709.484375 826.691406 709.648438 826.746094 C 711.964844 827.554688 724.929688 827.824219 724.929688 826.90625 Z M 421.789062 819.640625 C 422.492188 818.671875 419.253906 819.605469 416.683594 819.496094 C 414.128906 819.390625 409.832031 817.429688 410.246094 818.472656 C 410.679688 818.90625 416.808594 821.996094 421.789062 819.640625 Z M 407.675781 824.910156 C 407.460938 825.628906 424.273438 825.792969 424.542969 824.910156 C 424.8125 824.027344 407.835938 824.40625 407.675781 824.910156 Z M 518.445312 480.789062 C 517.617188 487.082031 511.574219 484.511719 510.496094 484.1875 C 509.417969 483.863281 506.46875 487.335938 511.394531 489.203125 C 516.304688 491.074219 522.21875 488.539062 524.523438 483.304688 C 526.824219 478.074219 521.25 472.300781 517.003906 470.484375 C 512.796875 468.382812 513.605469 464.839844 519.144531 464.785156 C 522.632812 464.980469 523.710938 461.421875 521.574219 460.144531 C 515.496094 457.808594 506.433594 461.996094 508.5 470.339844 C 510.226562 475.554688 519.289062 474.496094 518.445312 480.789062 Z M 549.535156 485.984375 C 549.875 484.960938 549.914062 481.078125 549.785156 476.761719 L 559.839844 476.542969 C 559.890625 481.308594 560.199219 485.519531 560.808594 486.273438 C 562.25 488.054688 563.882812 488.25 564.65625 485.375 C 565.429688 482.496094 566.023438 465.289062 565.160156 462.574219 C 564.296875 459.859375 562.300781 458.09375 560.808594 461.132812 C 560.324219 462.125 559.984375 466.386719 559.875 471.113281 C 556.925781 471.292969 551.910156 471.726562 549.605469 471.742188 C 549.410156 467.375 549.15625 463.5625 549.03125 462.933594 C 548.527344 460.234375 544.5 457.230469 543.476562 462.160156 C 543.1875 463.507812 543.566406 485.519531 544.96875 488.234375 C 546.386719 490.894531 548.691406 488.429688 549.535156 485.984375 Z M 578.972656 459.496094 C 588.429688 459.585938 592.996094 475.664062 587.980469 484.296875 C 582.945312 492.925781 572.121094 492.007812 568.308594 482.765625 C 565.199219 475.25 567.589844 459.40625 578.972656 459.496094 Z M 574.027344 479.132812 C 576.757812 487.28125 582.082031 485.339844 584.023438 478.792969 C 585.964844 472.246094 583.179688 466.167969 580.050781 465.449219 C 576.921875 464.695312 570.429688 468.363281 574.027344 479.132812 Z M 613.246094 482.765625 C 609.433594 492.027344 598.609375 492.945312 593.574219 484.296875 C 588.539062 475.664062 593.125 459.570312 602.582031 459.496094 C 613.964844 459.40625 616.355469 475.25 613.246094 482.765625 Z M 601.503906 465.433594 C 598.375 466.167969 595.585938 472.230469 597.527344 478.773438 C 599.472656 485.320312 604.792969 487.261719 607.527344 479.117188 C 611.125 468.363281 604.632812 464.695312 601.503906 465.433594 Z M 633.871094 486.847656 C 635.148438 485.929688 634.839844 482.980469 634.070312 482.300781 C 633.277344 481.617188 625.273438 483.84375 624.71875 483.539062 C 622.378906 479.3125 624.304688 464.300781 623.082031 460.917969 C 622.46875 459.226562 618.171875 458.832031 617.507812 461.027344 C 616.894531 463.003906 617.328125 486.183594 619.988281 488.394531 C 622.632812 490.605469 632.59375 487.765625 633.871094 486.847656 Z M 539.699219 487.460938 C 541.101562 486.003906 540.527344 483.019531 537.308594 483.019531 C 528.246094 481.921875 528.316406 464.839844 537.9375 464.640625 C 538.675781 464.621094 539.808594 463.976562 540.148438 463.328125 C 540.851562 461.980469 540.8125 460.488281 539.285156 459.875 C 518.875 455.199219 521.699219 495.425781 539.699219 487.460938 Z M 539.699219 487.460938 " fill-opacity="1" fill-rule="nonzero"/></svg>